<?xml version="1.0" encoding="iso-8859-1"?>
<!-- Generator: Adobe Illustrator 19.0.0, SVG Export Plug-In . SVG Version: 6.00 Build 0)  -->
<svg version="1.1" id="Layer_1" xmlns="http://www.w3.org/2000/svg" xmlns:xlink="http://www.w3.org/1999/xlink" x="0px" y="0px"
	 viewBox="0 0 512 512" style="enable-background:new 0 0 512 512;" xml:space="preserve">
<path style="fill:#FFDA44;" d="M306.087,0C286.133,0,268.247,8.84,256,22.755C243.753,8.84,225.867,0,205.913,0
	c-36.826,0-66.783,29.956-66.783,66.783s29.956,66.783,66.783,66.783H256h50.087c36.826,0,66.783-29.956,66.783-66.783
	S342.913,0,306.087,0z M172.522,66.783c0-18.413,14.978-33.391,33.391-33.391s33.391,14.978,33.391,33.391v33.391h-33.391
	C187.5,100.174,172.522,85.196,172.522,66.783z M306.087,100.174h-33.391V66.783c0-18.413,14.978-33.391,33.391-33.391
	s33.391,14.978,33.391,33.391S324.5,100.174,306.087,100.174z"/>
<path style="fill:#FF5023;" d="M473.043,495.304c0,9.22-7.475,16.696-16.696,16.696H55.652c-9.22,0-16.696-7.475-16.696-16.696
	V217.043c0-9.22,7.475-16.696,16.696-16.696h400.696c9.22,0,16.696,7.475,16.696,16.696V495.304z"/>
<path style="fill:#FF7956;" d="M506.435,217.043c0,9.22-7.475,16.696-16.696,16.696H22.261c-9.22,0-16.696-7.475-16.696-16.696
	V116.87c0-9.22,7.475-16.696,16.696-16.696h467.478c9.22,0,16.696,7.475,16.696,16.696V217.043z"/>
<path style="fill:#CD2A00;" d="M456.348,200.348H256V512h200.348c9.223,0,16.696-7.473,16.696-16.696V217.043
	C473.043,207.821,465.57,200.348,456.348,200.348z"/>
<path style="fill:#FFA733;" d="M306.087,0c-19.954,0-37.811,8.84-50.058,22.755c-0.018-0.02-0.029-0.038-0.029-0.057v110.867l0,0
	h50.087c36.826,0,66.783-29.956,66.783-66.783S342.913,0,306.087,0z M306.087,100.174h-33.391V66.783
	c0-18.413,14.978-33.391,33.391-33.391s33.391,14.978,33.391,33.391S324.5,100.174,306.087,100.174z"/>
<path style="fill:#FF5023;" d="M489.739,100.174H256v133.565h233.739c9.223,0,16.696-7.473,16.696-16.696V116.87
	C506.435,107.647,498.962,100.174,489.739,100.174z"/>
<path style="fill:#FFDA44;" d="M306.087,512H205.913V100.174h100.174V512z"/>
<rect x="256" y="100.174" style="fill:#FFA733;" width="50.087" height="411.826"/>
<g>
</g>
<g>
</g>
<g>
</g>
<g>
</g>
<g>
</g>
<g>
</g>
<g>
</g>
<g>
</g>
<g>
</g>
<g>
</g>
<g>
</g>
<g>
</g>
<g>
</g>
<g>
</g>
<g>
</g>
</svg>
