<?xml version="1.0" encoding="iso-8859-1"?>
<!-- Generator: Adobe Illustrator 19.0.0, SVG Export Plug-In . SVG Version: 6.00 Build 0)  -->
<svg version="1.1" id="Layer_1" xmlns="http://www.w3.org/2000/svg" xmlns:xlink="http://www.w3.org/1999/xlink" x="0px" y="0px"
	 viewBox="0 0 512 512" style="enable-background:new 0 0 512 512;" xml:space="preserve">
<path style="fill:#FF7856;" d="M444.807,10.935h-33.874v1.03l-287.653-1.03h-1.111H67.193C30.143,10.935,0,41.078,0,78.128
	l0.555,322.638h122.169L512,389.66V255.829V78.128C512,41.078,481.858,10.935,444.807,10.935z"/>
<rect x="366.508" y="10.935" style="fill:#FED422;" width="45.536" height="312.087"/>
<path style="fill:#FF6342;" d="M0,78.128c0-37.051,30.142-67.193,67.193-67.193h56.087l-0.555,389.831H0.555L0,78.128z"/>
<path style="fill:#ECE5DD;" d="M500.588,275.941c-5.29,25.767-27.351,45.094-53.642,45.936
	c-0.711,0.023-378.733,0.034-378.733,0.034c-36.873,0-67.643,29.281-68.205,66.149c-0.572,37.526,29.787,68.237,67.185,68.237
	h377.614c37.051,0,67.193-30.142,67.193-67.193l-0.555-166.039L500.588,275.941z"/>
<path style="fill:#FF7856;" d="M410.933,323.022V10.935h33.874c37.051,0,67.193,30.142,67.193,67.193v177.701
	c0,37.051-30.142,67.193-67.193,67.193H410.933z"/>
<path style="fill:#D9CBBD;" d="M444.807,388.549H0.015C0.012,388.735,0,388.918,0,389.105c0,37.051,30.142,67.193,67.193,67.193
	h377.614c37.051,0,67.193-30.142,67.193-67.193v-44.714l-15.794,19.537C483.556,379.575,464.822,388.549,444.807,388.549z"/>
<polygon style="fill:#FED422;" points="189.362,478.576 144.382,501.065 144.382,388.549 234.343,388.549 234.343,501.065 "/>
<path style="fill:#D9CBBD;" d="M500.588,275.941c-2.962,14.428-11.185,26.835-22.462,35.109v136.367
	C498.343,435.822,512,414.035,512,389.105l-0.555-166.039L500.588,275.941z"/>
<path style="fill:#C0AB91;" d="M478.126,379.494v67.924C498.343,435.822,512,414.035,512,389.105v-44.714l-15.794,19.537
	C491.077,370.273,484.935,375.497,478.126,379.494z"/>
<path style="fill:#FF6342;" d="M478.126,19.815v294.327C498.343,302.545,512,280.758,512,255.828V78.127
	C512,53.198,498.343,31.412,478.126,19.815z"/>
<g>
</g>
<g>
</g>
<g>
</g>
<g>
</g>
<g>
</g>
<g>
</g>
<g>
</g>
<g>
</g>
<g>
</g>
<g>
</g>
<g>
</g>
<g>
</g>
<g>
</g>
<g>
</g>
<g>
</g>
</svg>
